<svg width="1080" height="1080" viewBox="0 0 1080 1080" xmlns="http://www.w3.org/2000/svg">
  <defs>
    <radialGradient id="fondo" cx="50%" cy="42%" r="72%">
      <stop offset="0%" stop-color="#1B3253"/>
      <stop offset="62%" stop-color="#13253F"/>
      <stop offset="100%" stop-color="#0A1523"/>
    </radialGradient>
    <linearGradient id="oro" x1="0" y1="0" x2="1" y2="1">
      <stop offset="0%" stop-color="#F0DDB0"/>
      <stop offset="38%" stop-color="#C9A96A"/>
      <stop offset="70%" stop-color="#9C7A42"/>
      <stop offset="100%" stop-color="#E4CE9B"/>
    </linearGradient>
  </defs>

  <rect width="1080" height="1080" fill="url(#fondo)"/>

  <circle cx="540" cy="540" r="404" fill="none" stroke="url(#oro)" stroke-width="7"/>
  <circle cx="540" cy="540" r="356" fill="none" stroke="#C9A96A" stroke-opacity=".62"
          stroke-width="7" stroke-linecap="round" stroke-dasharray="0.5 27"/>

  <g fill="#C9A96A">
    <rect x="533" y="121" width="14" height="14" transform="rotate(45 540 128)"/>
    <rect x="533" y="945" width="14" height="14" transform="rotate(45 540 952)"/>
    <rect x="121" y="533" width="14" height="14" transform="rotate(45 128 540)"/>
    <rect x="945" y="533" width="14" height="14" transform="rotate(45 952 540)"/>
  </g>

  <g transform="translate(300 300) scale(4.8)" color="#EFDCB0"
     fill="none" stroke="#EFDCB0" stroke-width="3.6"
     stroke-linecap="round" stroke-linejoin="round">

  <path d="M52 12 h30 a6 6 0 0 1 6 6 v30 a6 6 0 0 1 -1.8 4.3 l-33.9 33.9 a6 6 0 0 1 -8.5 0 l-30.5 -30.5 a6 6 0 0 1 0 -8.5 l33.9 -33.9 a6 6 0 0 1 4.3 -1.8 z"/>
  <circle cx="71" cy="29" r="7"/>
  <path d="M35 47 l18 18"/>
 
  </g>
</svg>